/* XPM */
static char *_4947_cdcc18305db2fea89a50270592bb423ecbac7190106239de9734f7805b26ea9a[] = {
/* columns rows colors chars-per-pixel */
"50 50 241 2 ",
"   c #010101",
".  c #0B0001",
"X  c #000A01",
"o  c #0C0B00",
"O  c #01010B",
"+  c #0D000B",
"@  c #000D0D",
"#  c #130001",
"$  c #1C0000",
"%  c #13000B",
"&  c #150A02",
"*  c #001101",
"=  c #030110",
"-  c #0A0012",
";  c #000911",
":  c #110012",
">  c #1C1004",
",  c #230000",
"<  c #2B0000",
"1  c #2D060D",
"2  c #330000",
"3  c #3B0001",
"4  c #3B0B07",
"5  c #371300",
"6  c #350A11",
"7  c #00290C",
"8  c #262724",
"9  c #0E1736",
"0  c #430000",
"q  c #4B0000",
"w  c #4C000A",
"e  c #450C08",
"r  c #540100",
"t  c #5B0201",
"y  c #5B0909",
"u  c #571C19",
"i  c #4F1316",
"p  c #640000",
"a  c #680605",
"s  c #740000",
"d  c #790705",
"f  c #650D18",
"g  c #740D13",
"h  c #661718",
"j  c #741413",
"k  c #791415",
"l  c #6B100D",
"z  c #64231F",
"x  c #541829",
"c  c #782221",
"v  c #17483B",
"b  c #152644",
"n  c #29446C",
"m  c #765070",
"M  c #75617A",
"N  c #850407",
"B  c #970604",
"V  c #891718",
"C  c #9A1719",
"Z  c #AF1818",
"A  c #8A231A",
"S  c #B92514",
"D  c #A2231D",
"F  c #961E27",
"G  c #9B1434",
"H  c #A31B23",
"J  c #B51F26",
"K  c #852626",
"L  c #982929",
"P  c #8B2A38",
"I  c #942B32",
"U  c #9A3439",
"Y  c #A2282D",
"T  c #B92525",
"R  c #B72936",
"E  c #B83637",
"W  c #AE2E36",
"Q  c #C40000",
"!  c #D20809",
"~  c #C91917",
"^  c #DD1915",
"/  c #DB1717",
"(  c #D60D1F",
")  c #E50C16",
"_  c #EE1C13",
"`  c #E5141A",
"'  c #EC1B1C",
"]  c #E81518",
"[  c #F31B1D",
"{  c #F61E18",
"}  c #E6130A",
"|  c #D72519",
" . c #CB2018",
".. c #E4241E",
"X. c #EA2219",
"o. c #F5221C",
"O. c #F5281B",
"+. c #C8162A",
"@. c #DD1525",
"#. c #D51C22",
"$. c #DC1F25",
"%. c #D31C2B",
"&. c #DC1E2C",
"*. c #C41634",
"=. c #D41E3A",
"-. c #C10422",
";. c #E41322",
":. c #EB1623",
">. c #E31E24",
",. c #EC1C24",
"<. c #E2152B",
"1. c #E31B2B",
"2. c #EC1C2B",
"3. c #E8172A",
"4. c #FC1524",
"5. c #F31C23",
"6. c #FB1C23",
"7. c #F31C2B",
"8. c #FC1C2C",
"9. c #F7152A",
"0. c #E31E32",
"q. c #FC1B31",
"w. c #F41B36",
"e. c #FE0F32",
"r. c #CE2928",
"t. c #C7282A",
"y. c #DC2324",
"u. c #D2232C",
"i. c #DC232B",
"p. c #D32B2B",
"a. c #DC2C2C",
"s. c #D12624",
"d. c #C7302E",
"f. c #D73124",
"g. c #CB2937",
"h. c #DC2434",
"j. c #DC2C31",
"k. c #D32636",
"l. c #C33432",
"z. c #CC353C",
"x. c #C43B3C",
"c. c #C83838",
"v. c #D9343A",
"b. c #D73537",
"n. c #E42324",
"m. c #EB2424",
"M. c #EB2A23",
"N. c #E2242C",
"B. c #ED232A",
"V. c #E32B2B",
"C. c #EA282B",
"Z. c #E32A25",
"A. c #F32324",
"S. c #FE2424",
"D. c #F22925",
"F. c #F3222B",
"G. c #FD232C",
"H. c #FC2A2D",
"J. c #EC2333",
"K. c #E22A31",
"L. c #EA2B33",
"P. c #E72739",
"I. c #F32233",
"U. c #FF2C3C",
"Y. c #FC2835",
"T. c #E2323D",
"R. c #E33535",
"E. c #FF3738",
"W. c #EF342D",
"Q. c #88433C",
"!. c #BF443F",
"~. c #CE4330",
"^. c #893847",
"/. c #AB3B44",
"(. c #B93749",
"). c #AD2A4B",
"_. c #D72742",
"`. c #C83A45",
"'. c #D43343",
"]. c #D63B47",
"[. c #C9324D",
"{. c #E72746",
"}. c #E33B47",
"|. c #F83144",
" X c #B74646",
".X c #BA4A53",
"XX c #AE4D52",
"oX c #BC5060",
"OX c #A35467",
"+X c #88736E",
"@X c #CB454B",
"#X c #C64956",
"$X c #C6525D",
"%X c #D85252",
"&X c #D7464B",
"*X c #E64956",
"=X c #F04A4F",
"-X c #E34C6B",
";X c #D5676F",
":X c #E7697A",
">X c #EC797A",
",X c #F06D74",
"<X c #FF6C81",
"1X c #EF7E82",
"2X c #F8759C",
"3X c #FC7DA8",
"4X c #7B8F83",
"5X c #B4999E",
"6X c #A397BD",
"7X c #9FAFAC",
"8X c #9795AD",
"9X c #EA8887",
"0X c #FD8A9A",
"qX c #F68F92",
"wX c #FF89A4",
"eX c #FC95A3",
"rX c #FF89BB",
"tX c #FFA4A7",
"yX c #F9A8B3",
"uX c #FFBCD0",
"iX c #F0B5CA",
"pX c #8ED3C0",
"aX c #9DE1CC",
"sX c #B8D6F2",
"dX c #FFD9D6",
"fX c #F0C5CF",
"gX c #FFE1DB",
"hX c #C5D4F3",
"jX c #FFDCE6",
"kX c #FFD2E2",
"lX c #FFE7E5",
"zX c #FFF4EC",
"xX c #FFE6FF",
"cX c #FFEEF8",
"vX c #E1FFFB",
"bX c #E5FFF6",
"nX c #FDFCF5",
"mX c #FFF4FF",
"MX c #F6FFFD",
"NX c #FBFFFF",
"BX c #FFF6F5",
/* pixels */
"              . .   . .   .         X   X X X X X X X X X X X   . # . #             O   O O O O     ",
"                . .   . .   .       X         X X   X           . # . . . .           O   O         ",
"              .               . .   .   . .                   . .                                   ",
"                                . # . . . . . . . . . . . . .                 .             O       ",
"                                  .   . . .   .   . .   . .       O           . .           X       ",
"                                                                X X X X     . . . . . .             ",
"                  X   X   X       X X X     X X       X   X   X X @ X         . # . .               ",
". .               X             X X X X X X       X X   X X   X X X X O     . . . # . . .           ",
".               X   X             X       .     . . .           X X   X X   . . . . . .             ",
"  . .       X     X           . . # # $ , < 4 e 3 2 2 < 2 < $ # .         . . o .   .               ",
"  .                     . . . % < 2 q y j K U (.$X#X.X/.P g r 3 , # . . # .                         ",
". .         X X         . # $ , 0 s F W `.].].*X'.'.'.'.'.g.J F 3 < , $ $ & .             . .       ",
".   .               . . # $ , 3 V T b.v.T.h.&.1.@.<.&.1.P.P.v.g.V y 2 < , & o   X           + .     ",
".                   . # $ $ 6 f x.j.v.K.y.@.:.:.|.Y.I.F.F.B.1.u.@XI y < $ . X X X X X X   + + +     ",
".                 . # # $ 1 x ^.E f.f.| y.m.G.H.) ) ) ` >.C.C.j.@X XI r < .   * X X X O O O - %     ",
"  .                 # $ < w ^.#Xd.| | y.C.B.2.:.G.G.S.A.A.D.X.y. .c.!.A q <   * * * X O O + + .     ",
".         O X     & & < y Y l.b.| X.^ D.I.;.w.|.|.Q =X{ { ! E.] W.f.S ~.B t . 7 * @ ; @ O   . .     ",
". .         O   X o # < d T a.Z.O.O.| / =.=.=.-.0.I.` ` H.E./ !  .Z ~.S #.s & X X ; ; ; O   . .     ",
"  .       O O X   o $ 2 A l.a.m.X...r.x.:XeXqX,X_.P.( 2.a.r.d.,X9X1X9XXXg.N 6 X O = = O             ",
"          O O     . $ q L b.V.m.' s.%X9XdXBXlXdXwX*.{.{.t.C tXdXcXmXfXyX[.G $ @   O O O   X X       ",
"  .       O       # , t E v.B.5.I.u.9XdXMXvX7X5XuX-X_.{.[.;XlXnXMXhX8XiX3X).$   . + + O     X X     ",
"        O         # < l E T.,.8.Y.k.tXnXvXpXv 8 OXrX*.=.`.yXlXMXsXn b m rX).6 o # $ # .   X X X     ",
"      O   O     . & 2 j z.j.:.Y.e.+.eXBXvXaXv 8 ^.wX*.k.W eXlXMXhXn 9 m 3X).4 > # # # +       X     ",
"          O     . $ 3 k z.1.) q.9.+.0XdXMXbX8XM uX,X*._.g.:XlXlXmX6Xm iX2X)., o . . . . O O O O     ",
"      O   O     . $ 2 k z.N.8.4.4.J.%XeXlXzXzXlX1X*Xu.&.k.].qXjXxXxXkXqX].x., X         + O = O     ",
"        O       . , 2 k z.1.8.4.4.,.j.*X9XqX9X>X&Xp.#.C.$.%.}.<X0XwX1X%X$.c.5 * X     O = - - -     ",
"          O O   . $ 2 k z.N.8.4.S.' / &.j.v.g.t.s.| M.D.F.;.<.<.P.}.T ~ ) b.5 * * X   O = - : +     ",
"        O       . , < k z.i.F.6.S.o.:.;.&.<.1.>.....O.X.A.8.q.9.5.m.~ / ] W.5 o X X O O = - % #     ",
"            O     $ < j `.i.F.6.{ X.,.2.2.2.7.A.o.O._ } ] G.Y.q.q.Y.V.M.4.P.0 X     O O O O . .     ",
"          O       $ < j x.u.B.5.n.X.C.I.w.9.9.:.[ o.o._ { 5.w.2.3.J.K.L.e.P.0 .   O O O             ",
"      O           $ , j x.p.B.5.Z.Z.V.C.P.0.2.5.[ { o.S.D.1.i.h.%.h.=.P.e.{.q # + - = O   X X       ",
"          O O     $ < j x.p.F.A.^ | $.y.N.J.7.7.[ _ { A.m./ %.K.h.h.%.{.e.{.r $ . O O O             ",
". .     O X O   # $ 2 d ].y.[ [ D.m.m.' 5.5.5.5.E.D.X...M.L.D.` B.F.I.` w.k.p < .   X X O   . #     ",
".       O X X   . , 2 V ].n.[ [ X.n.m.5.6.6.5.A.! | W.Z./ / ' G.] ' G.:.L.g.s < . X * * X   % : .   ",
". .       X X     < 2 V z.u.>.A.Z.V.V.B.B.7.B.C.Z.a.a.a.y.>.B.B.N.y.L.&.}.g.p < # X X X O   % %     ",
".       O X O   . $ < j E t.a.V.p.p.p.i.y.N.N.K.R.a.r.r.a.K.C.i.v.d.g.t.'.R t < #   X X X   + %     ",
".           X     & , h  X!.l.S B C T d.v.v.t.t.N C E c.t.t.%.b.C V Y W [.(.r < #   X X O O   .     ",
". .       O O     # $ z oX!.D d q t V W @X`.H N t p N W @X@XR H q 0 g P .XOXw < #     X             ",
". .         X X   . # i Q.K a q < 2 q c U U g q 0 3 3 l XX#XF r < , < i ^.^.2 , #     X X           ",
". .       X       o o , u e 0 < < $ , 4 z u 0 < 2 < < 2 i h r 2 1 . # , x x < $ # .         O       ",
". . .               . . $ , , $     . . $ $ $ & # # # # $ , < $ .     # % $ $ # . .         X       ",
". .                   . . # # .   X       . .             . # #     O   . . # # .           X       ",
"  . .                   .   .   X X X X               X     . . O   O     .   . . .       X         ",
".     .                         X X X           X X X X               O                             ",
"    . . .   . .               O X X   O           X X     O                 X                       ",
"          . .   .         O O O O O     +     O O X O X O     . # . .     X   X       .             ",
"      . . . . . .     O O O O @     O . . + . . O             # # # .     X X X                     ",
"          .   . .       O O O   O   . . # . o       O   O   . . # # .     X   X                     ",
"                                                                .                                   ",
"                                                                                                    "
};
