/* XPM */
static char *_7953_e3fc9c404bc3fd89f30a93cd61708eebbd22d4e932c3506503f81d401df49020[] = {
/* columns rows colors chars-per-pixel */
"50 50 150 2 ",
"   c black",
".  c #121003",
"X  c #080702",
"o  c #080701",
"O  c #100E03",
"+  c #080802",
"@  c #A1901E",
"#  c #A99720",
"$  c #39330B",
"%  c #020200",
"&  c #98881D",
"*  c #050501",
"=  c #423B0C",
"-  c #F3D92E",
";  c #FFE831",
":  c #EBD22C",
">  c #92831C",
",  c #2A2608",
"<  c #EED52D",
"1  c #010100",
"2  c #99891D",
"3  c #FFE731",
"4  c #FFE430",
"5  c #FFE530",
"6  c #FFE631",
"7  c #E0C82A",
"8  c #7E7118",
"9  c #1D1A06",
"0  c #8E7F1B",
"q  c #1F1C06",
"w  c #DCC529",
"e  c #FFE630",
"r  c #D3BD28",
"t  c #6A5F14",
"y  c #131104",
"u  c #D5BE28",
"i  c #191605",
"p  c #554C10",
"a  c #FBE12F",
"s  c #FDE230",
"d  c #C4AF25",
"f  c #574E10",
"g  c #0B0A02",
"h  c #F8DE2F",
"j  c #4B430E",
"k  c #8F801B",
"l  c #B3A022",
"z  c #453E0D",
"x  c #050401",
"c  c #837519",
"v  c #090802",
"b  c #BCA823",
"n  c #F1D82D",
"m  c #A08F1E",
"M  c #342F0A",
"N  c #352F0A",
"B  c #B29F22",
"V  c #1A1705",
"C  c #DAC329",
"Z  c #E8CF2C",
"A  c #8C7D1A",
"S  c #262207",
"D  c #8C7E1A",
"F  c #D2BC27",
"G  c #141204",
"H  c #2C2708",
"J  c #DDC52A",
"K  c #786C17",
"L  c #E5CD2B",
"P  c #242007",
"I  c #3A340B",
"U  c #F3DA2E",
"Y  c #CFB927",
"T  c #645A13",
"R  c #100F03",
"E  c #655A13",
"W  c #302B09",
"Q  c #40390C",
"!  c #F6DC2E",
"~  c #FCE12F",
"^  c #BFAB24",
"/  c #534A10",
"(  c #F1D72D",
")  c #36300A",
"_  c #F7DD2F",
"`  c #F8DD2F",
"'  c #35300A",
"]  c #EED42D",
"[  c #2B2708",
"{  c #EAD12C",
"}  c #E4CC2B",
"|  c #232007",
" . c #D9C229",
".. c #D1BB27",
"X. c #BAA723",
"o. c #B09E21",
"O. c #817318",
"+. c #52490F",
"@. c #FAE02F",
"#. c #F7DD2E",
"$. c #48400D",
"%. c #1D1A05",
"&. c #D2BC28",
"*. c #171404",
"=. c #010000",
"-. c #95851C",
";. c #8A7B1A",
":. c #3E370C",
">. c #F0D72D",
",. c #060601",
"<. c #A89620",
"1. c #9D8D1E",
"2. c #040301",
"3. c #3C360B",
"4. c #ECD32C",
"5. c #E7CE2B",
"6. c #342E0A",
"7. c #897A1A",
"8. c #7F7118",
"9. c #C3AE25",
"0. c #E0C92A",
"q. c #312C09",
"w. c #544B10",
"e. c #E7CF2C",
"r. c #5D5311",
"t. c #DBC429",
"y. c #C2AE25",
"u. c #332D09",
"i. c #181605",
"p. c #887919",
"a. c #151304",
"s. c #A5931F",
"d. c #EFD52D",
"f. c #9F8E1E",
"g. c #060501",
"h. c #D5BF28",
"j. c #D3BC28",
"k. c #8B7C1A",
"l. c #36310A",
"z. c #040401",
"x. c #4A420E",
"c. c #847619",
"v. c #B29F21",
"b. c #E3CB2B",
"n. c #D0BA27",
"m. c #B09D21",
"M. c #817418",
"N. c #47400D",
"B. c #231F06",
"V. c white",
/* pixels */
"                                                                                                    ",
"                                                                                                    ",
"                                                                                                    ",
"                                                                                                    ",
"                                                                                                    ",
"                                                                                                    ",
"                                                                                                    ",
"                                                                                                    ",
"                                                                                                    ",
"                                                                                                    ",
"                                                                                                    ",
"                                                                                                    ",
"                                                                                                    ",
"        . X                                                                             o O         ",
"      + @ # $ %                                                                     % $ # & *       ",
"      = - ; : > ,                                                                 , > : ; < $       ",
"    1 2 3 4 5 6 7 8 9                                                         9 8 7 6 5 4 3 0       ",
"    q w e 4 4 4 e 5 r t y                                                 y t r 5 e 4 4 4 6 u i     ",
"    p a 4 4 4 4 4 4 6 s d f g                                         g f d s 6 4 4 4 4 4 4 h j     ",
"    k ; 4 4 4 4 4 4 4 4 3 h l z x                                 x z l h 3 4 4 4 4 4 4 4 4 3 c     ",
"  v b 3 4 4 4 4 4 4 4 4 4 5 3 n m M 1                         1 N m n 3 5 4 4 4 4 4 4 4 4 4 ; B *   ",
"  V C e 4 4 4 4 4 4 4 4 4 4 4 5 3 Z A S                     S D Z 3 5 4 4 4 4 4 4 4 4 4 4 4 3 F G   ",
"  H : 5 4 4 4 4 4 4 4 4 4 4 4 4 4 5 e J K V             V K J e 5 4 4 4 4 4 4 4 4 4 4 4 4 4 e L P   ",
"  I U 5 4 4 4 4 4 4 4 4 4 4 4 4 4 4 4 e 4 Y T R     R E Y 4 e 4 4 4 4 4 4 4 4 4 4 4 4 4 4 4 5 < W   ",
"  Q ! 4 4 4 4 4 4 4 4 4 4 4 4 4 4 4 4 4 4 3 ~ ^ / / ^ ~ 3 4 4 4 4 4 4 4 4 4 4 4 4 4 4 4 4 4 5 ( )   ",
"  Q ! 4 4 4 4 4 4 4 4 4 4 4 4 4 4 4 4 4 4 4 4 3 _ ` 3 4 4 4 4 4 4 4 4 4 4 4 4 4 4 4 4 4 4 4 5 ( '   ",
"  $ - 5 4 4 4 4 4 4 4 4 4 4 4 4 4 4 4 4 4 4 4 4 4 4 4 4 4 4 4 4 4 4 4 4 4 4 4 4 4 4 4 4 4 4 5 ] W   ",
"  [ { 5 4 4 4 4 4 4 4 4 4 4 4 4 4 4 4 4 4 4 4 4 4 4 4 4 4 4 4 4 4 4 4 4 4 4 4 4 4 4 4 4 4 4 e } |   ",
"  i  .e 4 4 4 4 4 4 4 4 4 4 4 4 4 4 4 4 4 4 4 4 4 4 4 4 4 4 4 4 4 4 4 4 4 4 4 4 4 4 4 4 4 4 3 ..y   ",
"  X X.3 4 4 4 4 4 4 4 4 4 4 4 4 4 4 4 4 4 4 4 4 4 4 4 4 4 4 4 4 4 4 4 4 4 4 4 4 4 4 4 4 4 4 ; o.x   ",
"    A 3 4 4 4 4 4 4 4 4 4 4 4 4 4 4 4 4 4 4 4 4 4 4 4 4 4 4 4 4 4 4 4 4 4 4 4 4 4 4 4 4 4 4 3 O.    ",
"    +.@.4 4 4 4 4 4 4 4 4 4 4 4 4 4 4 4 4 4 4 4 4 4 4 4 4 4 4 4 4 4 4 4 4 4 4 4 4 4 4 4 4 4 #.$.    ",
"    %.C e 4 4 4 4 4 4 4 4 4 4 4 4 4 4 4 4 4 4 4 4 4 4 4 4 4 4 4 4 4 4 4 4 4 4 4 4 4 4 4 4 6 &.*.    ",
"    =.-.3 4 4 4 4 4 4 4 4 4 4 4 4 4 4 4 4 4 4 4 4 4 4 4 4 4 4 4 4 4 4 4 4 4 4 4 4 4 4 4 4 3 ;.      ",
"      :.>.5 4 4 4 4 4 4 4 4 4 4 4 4 4 4 4 4 4 4 4 4 4 4 4 4 4 4 4 4 4 4 4 4 4 4 4 4 4 4 5 : N       ",
"      ,.<.3 4 4 4 4 4 4 4 4 4 4 4 4 4 4 4 4 4 4 4 4 4 4 4 4 4 4 4 4 4 4 4 4 4 4 4 4 4 4 3 1.2.      ",
"        3.4.5 4 4 4 4 4 4 4 4 4 4 4 4 4 4 4 4 4 4 4 4 4 4 4 4 4 4 4 4 4 4 4 4 4 4 4 4 e 5.6.        ",
"        1 7.5 4 4 4 4 4 4 4 4 4 4 4 4 4 4 4 4 4 4 4 4 4 4 4 4 4 4 4 4 4 4 4 4 4 4 4 4 4 8.          ",
"          i 9.3 4 4 4 4 4 4 4 4 4 4 4 4 4 4 4 4 4 4 4 4 4 4 4 4 4 4 4 4 4 4 4 4 4 4 3 X.G           ",
"            $ 0.6 4 4 4 4 4 4 4 4 4 4 4 4 4 4 4 4 4 4 4 4 4 4 4 4 4 4 4 4 4 4 4 4 3 C q.            ",
"              w.4.e 4 4 4 4 4 4 4 4 4 4 4 4 4 4 4 4 4 4 4 4 4 4 4 4 4 4 4 4 4 4 e e.j               ",
"                r.4.6 4 4 4 4 4 4 4 4 4 4 4 4 4 4 4 4 4 4 4 4 4 4 4 4 4 4 4 4 3 Z w.                ",
"                  / 7 3 4 4 4 4 4 4 4 4 4 4 4 4 4 4 4 4 4 4 4 4 4 4 4 4 4 4 3 t.j                   ",
"                    $ y.5 5 4 4 4 4 4 4 4 4 4 4 4 4 4 4 4 4 4 4 4 4 4 4 e 4 b u.                    ",
"                      i.p.: 3 5 4 4 4 4 4 4 4 4 4 4 4 4 4 4 4 4 4 4 5 3 Z O.a.                      ",
"                        1 $ s.d.3 e 4 4 4 4 4 4 4 4 4 4 4 4 4 4 6 3 4.f.N                           ",
"                            g.I k h.h 3 ; 3 e 5 5 5 5 e 3 ; 3 #.j.k.l.z.                            ",
"                                  i x.c.v...} < n n < b.n.m.M.N.*.                                  ",
"                                        * y | W ) ) W B.. x                                         ",
"                                                                                                    "
};
