/* XPM */
static char *_8804_1ebddb4a0f824af361b76da0417b605c3ac13286a3ee857d6c173fd72f314ded[] = {
/* columns rows colors chars-per-pixel */
"50 50 150 2 ",
"   c black",
".  c #090802",
"X  c #191605",
"o  c #2B2608",
"O  c #3A340B",
"+  c #40390C",
"@  c #39330B",
"#  c #2A2608",
"$  c #181605",
"%  c #080701",
"&  c #010100",
"*  c #1F1C06",
"=  c #544C10",
"-  c #8F801B",
";  c #BCA823",
":  c #D9C229",
">  c #EAD12C",
",  c #F3DA2E",
"<  c #F6DC2E",
"1  c #F3D92E",
"2  c #D8C129",
"3  c #BAA623",
"4  c #8C7E1A",
"5  c #51490F",
"6  c #1D1A05",
"7  c #433C0D",
"8  c #9A8A1D",
"9  c #DDC52A",
"0  c #FBE02F",
"q  c #FFE831",
"w  c #FFE731",
"e  c #FFE630",
"r  c #FFE530",
"t  c #FFE430",
"y  c #FAE02F",
"u  c #DAC329",
"i  c #96861C",
"p  c #3F380C",
"a  c #030301",
"s  c #423B0C",
"d  c #AF9C21",
"f  c #F2D82E",
"g  c #9E8E1E",
"h  c #110F03",
"j  c #1E1A06",
"k  c #92821B",
"l  c #EFD62D",
"z  c #A89620",
"x  c #CAB526",
"c  c #EAD22C",
"v  c #38320B",
"b  c #5B5211",
"n  c #E5CD2B",
"m  c #FFE631",
"M  c #91821B",
"N  c #020100",
"B  c #655A13",
"V  c #F0D62D",
"C  c #E0C82A",
"Z  c #2A2508",
"A  c #5B5111",
"S  c #7D7018",
"D  c #D3BC28",
"F  c #1C1905",
"G  c #C8B326",
"H  c #FDE230",
"J  c #6A5E14",
"K  c #030200",
"L  c #90801B",
"P  c #C3AF25",
"I  c #131104",
"U  c #413A0C",
"Y  c #EFD52D",
"T  c #F8DE2F",
"R  c #564D10",
"E  c #AC9A20",
"W  c #B29F22",
"Q  c #0B0A02",
"!  c #F2D92E",
"~  c #F1D72D",
"^  c #443D0D",
"/  c #99891D",
"(  c #A08F1E",
")  c #050401",
"_  c #DCC529",
"`  c #E8CF2C",
"'  c #342F0A",
"]  c #554C10",
"[  c #FBE12F",
"{  c #8C7D1A",
"}  c #262207",
"|  c #786B17",
" . c #1A1705",
".. c #CFB927",
"X. c #2C2708",
"o. c #EBD22C",
"O. c #FCE12F",
"+. c #645A13",
"@. c #BFAB24",
"#. c #100F03",
"$. c #F8DD2F",
"%. c #534A10",
"&. c #2B2708",
"*. c #080702",
"=. c #BAA723",
"-. c #52490F",
";. c #010000",
":. c #95851C",
">. c #3E370C",
",. c #F0D72D",
"<. c #060601",
"1. c #3C360B",
"2. c #ECD32C",
"3. c #897A1A",
"4. c #131103",
"5. c #C3AE25",
"6. c #E0C92A",
"7. c #544B10",
"8. c #5D5311",
"9. c #C2AE25",
"0. c #887919",
"q. c #070701",
"w. c #A5931F",
"e. c #EDD42D",
"r. c #0E0D03",
"t. c #060501",
"y. c #D5BF28",
"u. c #F7DD2E",
"i. c #8B7C1A",
"p. c #36310A",
"a. c #4A420E",
"s. c #847619",
"d. c #B29F21",
"f. c #D1BB27",
"g. c #E4CC2B",
"h. c #EED52D",
"j. c #F1D82D",
"k. c #E3CB2B",
"l. c #D0BA27",
"z. c #B09D21",
"x. c #817418",
"c. c #47400D",
"v. c #171404",
"b. c #050501",
"n. c #232007",
"m. c #302B09",
"M. c #36300A",
"N. c #231F06",
"B. c #121003",
"V. c white",
/* pixels */
"                                                                                                    ",
"                                        . X o O + + @ # $ %                                         ",
"                                & * = - ; : > , < < 1 > 2 3 4 5 6 &                                 ",
"                            . 7 8 9 0 q w e r r t t r r e w w y u i p %                             ",
"                        a s d 1 w e t t t t t t t t t t t t t t e w f g h                           ",
"                      j k l w r t t t t t t t t t t t t t t t t t t q z %                           ",
"                    + x e r t t t t t t t t t t t t t t t t t t t r c v                             ",
"                & b n w t t t t t t t t t t t t t t t t t t t t t m M N                             ",
"              & B V e t t t t t t t t t t t t t t t t t t t t t e C Z                               ",
"              A V e t t t t t t t t t t t t t t t t t t t t t t r S                                 ",
"            p n e t t t t t t t t t t t t t t t t t t t t t t m D 6                                 ",
"          F G w t t t t t t t t t t t t t t t t t t t t t t t H J                                   ",
"        K L e t t t t t t t t t t t t t t t t t t t t t t t w P I                                   ",
"        U Y r t t t t t t t t t t t t t t t t t t t t t t r T R                                     ",
"      % E w t t t t t t t t t t t t t t t t t t t t t t t w W Q                                     ",
"      s ! r t t t t t t t t t t t t t t t t t t t t t t r ~ ^                                       ",
"    & / w t t t t t t t t t t t t t t t t t t t t t t t w ( )                                       ",
"    * _ e t t t t t t t t t t t t t t t t t t t t t t r ` '                                         ",
"    ] [ t t t t t t t t t t t t t t t t t t t t t t t e { &                                         ",
"    - q t t t t t t t t t t t t t t t t t t t t t t e _ }                                           ",
"  . ; w t t t t t t t t t t t t t t t t t t t t t t t |                                             ",
"   .u e t t t t t t t t t t t t t t t t t t t t t w .. .                                            ",
"  X.o.r t t t t t t t t t t t t t t t t t t t t t O.+.                                              ",
"  O , r t t t t t t t t t t t t t t t t t t t t w @.#.                                              ",
"  + < t t t t t t t t t t t t t t t t t t t t t $.%.                                                ",
"  + < t t t t t t t t t t t t t t t t t t t t t $.%.                                                ",
"  @ 1 r t t t t t t t t t t t t t t t t t t t t w @.#.                                              ",
"  &.> r t t t t t t t t t t t t t t t t t t t t t O.+.                                              ",
"  X : e t t t t t t t t t t t t t t t t t t t t t w .. .                                            ",
"  *.=.w t t t t t t t t t t t t t t t t t t t t t t t |                                             ",
"    { w t t t t t t t t t t t t t t t t t t t t t t e _ }                                           ",
"    -.y t t t t t t t t t t t t t t t t t t t t t t t e { &                                         ",
"    6 u e t t t t t t t t t t t t t t t t t t t t t t r ` '                                         ",
"    ;.:.w t t t t t t t t t t t t t t t t t t t t t t t w ( )                                       ",
"      >.,.r t t t t t t t t t t t t t t t t t t t t t t r ~ ^                                       ",
"      <.z w t t t t t t t t t t t t t t t t t t t t t t t w W Q                                     ",
"        1.2.r t t t t t t t t t t t t t t t t t t t t t t r T R                                     ",
"        & 3.r t t t t t t t t t t t t t t t t t t t t t t t w P 4.                                  ",
"          X 5.w t t t t t t t t t t t t t t t t t t t t t t t H J                                   ",
"            @ 6.m t t t t t t t t t t t t t t t t t t t t t t m D 6                                 ",
"              7.2.e t t t t t t t t t t t t t t t t t t t t t t r S                                 ",
"                8.2.m t t t t t t t t t t t t t t t t t t t t t e C Z                               ",
"                  %.C w t t t t t t t t t t t t t t t t t t t t t m M N                             ",
"                    @ 9.r r t t t t t t t t t t t t t t t t t t t r c v                             ",
"                      $ 0.o.w r t t t t t t t t t t t t t t t t t t q z q.                          ",
"                        & @ w.Y w e t t t t t t t t t t t t t t m w e.:.r.                          ",
"                            t.O - y.T w q w e r r r r e w q w u.D i.p.)                             ",
"                                  X a.s.d.f.g.h.j.j.h.k.l.z.x.c.v.                                  ",
"                                        b.I n.m.M.M.m.N.B.)                                         ",
"                                                                                                    "
};
