/* XPM */
static char *_0808_b8cbaba3d9d2de95fc093d4fa728fbe5f309d4a836caad0a1e380e9e1f4bcbbb[] = {
/* columns rows colors chars-per-pixel */
"50 50 164 2 ",
"   c black",
".  c #090802",
"X  c #191605",
"o  c #2B2608",
"O  c #3A340B",
"+  c #40390C",
"@  c #39330B",
"#  c #2A2608",
"$  c #181605",
"%  c #080701",
"&  c #010100",
"*  c #1F1C06",
"=  c #544C10",
"-  c #8F801B",
";  c #BCA823",
":  c #D9C229",
">  c #EAD12C",
",  c #F3DA2E",
"<  c #F6DC2E",
"1  c #F3D92E",
"2  c #D8C129",
"3  c #BAA623",
"4  c #8C7E1A",
"5  c #51490F",
"6  c #1D1A05",
"7  c #433C0D",
"8  c #9A8A1D",
"9  c #DDC52A",
"0  c #FBE02F",
"q  c #FFE831",
"w  c #FFE731",
"e  c #FFE630",
"r  c #FFE530",
"t  c #FFE430",
"y  c #FAE02F",
"u  c #DAC329",
"i  c #96861C",
"p  c #3F380C",
"a  c #070601",
"s  c #030301",
"d  c #423B0C",
"f  c #AF9C21",
"g  c #F1D82D",
"h  c #A99820",
"j  c #3D370B",
"k  c #020200",
"l  c #1E1A06",
"z  c #92821B",
"x  c #EFD62D",
"c  c #EDD42D",
"v  c #8B7C1A",
"b  c #1A1705",
"n  c #CAB526",
"m  c #C4B025",
"M  c #5B5211",
"N  c #E5CD2B",
"B  c #E1C92A",
"V  c #544B10",
"C  c #655A13",
"Z  c #F0D62D",
"A  c #FFE631",
"S  c #ECD32C",
"D  c #5F5512",
"F  c #5B5111",
"G  c #FFE931",
"H  c #B5A222",
"J  c #0E0D03",
"K  c #BBA823",
"L  c #272307",
"P  c #1C1905",
"I  c #C8B326",
"U  c #AD9B21",
"Y  c #030200",
"T  c #90801B",
"R  c #FEE330",
"E  c #9F8E1E",
"W  c #141204",
"Q  c #413A0C",
"!  c #EFD52D",
"~  c #0E0C03",
"^  c #AC9A20",
"/  c #F7DD2E",
"(  c #807218",
")  c #080702",
"_  c #F2D92E",
"`  c #706415",
"'  c #040401",
"]  c #99891D",
"[  c #EBD22C",
"{  c #615612",
"}  c #DCC529",
"|  c #E3CB2B",
" . c #52490F",
".. c #554C10",
"X. c #FBE12F",
"o. c #443D0D",
"O. c #CEB827",
"+. c #37310A",
"@. c #C2AD25",
"#. c #2B2708",
"$. c #B4A122",
"%. c #211E06",
"&. c #2C2708",
"*. c #A6951F",
"=. c #FCE12F",
"-. c #97871C",
";. c #110F03",
":. c #FCE230",
">. c #0A0902",
",. c #211D06",
"<. c #BAA723",
"1. c #8C7D1A",
"2. c #010000",
"3. c #95851C",
"4. c #3E370C",
"5. c #F0D72D",
"6. c #060601",
"7. c #A89620",
"8. c #3C360B",
"9. c #897A1A",
"0. c #C3AE25",
"q. c #E0C92A",
"w. c #BBA723",
"e. c #B29F22",
"r. c #0D0B02",
"t. c #5D5311",
"y. c #E8CF2C",
"u. c #574D10",
"i. c #534A10",
"p. c #E0C82A",
"a. c #DBC429",
"s. c #4B430E",
"d. c #C2AE25",
"f. c #332D09",
"g. c #887919",
"h. c #817318",
"j. c #151304",
"k. c #A5931F",
"l. c #352F0A",
"z. c #060501",
"x. c #D5BF28",
"c. c #F8DE2F",
"v. c #D3BC28",
"b. c #36310A",
"n. c #4A420E",
"m. c #847619",
"M. c #B29F21",
"N. c #D1BB27",
"B. c #E4CC2B",
"V. c #EED52D",
"C. c #D0BA27",
"Z. c #B09D21",
"A. c #817418",
"S. c #47400D",
"D. c #171404",
"F. c #050501",
"G. c #131104",
"H. c #232007",
"J. c #302B09",
"K. c #36300A",
"L. c #231F06",
"P. c #121003",
"I. c #050401",
"U. c white",
/* pixels */
"                                                                                                    ",
"                                        . X o O + + @ # $ %                                         ",
"                                & * = - ; : > , < < 1 > 2 3 4 5 6 &                                 ",
"                            . 7 8 9 0 q w e r r t t r r e w w y u i p a                             ",
"                        s d f 1 w e t t t t t t t t t t t t t t e w g h j k                         ",
"                      l z x w r t t t t t t t t t t t t t t t t t t r w c v b                       ",
"                    + n e r t t t t t t t t t t t t t t t t t t t t t t r r m O                     ",
"                & M N w t t t t t t t t t t t t t t t t t t t t t t t t t t w B V                   ",
"              & C Z e t t t t t t t t t t t t t t t t t t t t t t t t t t t t A S D k               ",
"              F Z e t t t t t t t t t t t t t t t t t t t t t t t t t t t t t t G H J               ",
"            p N e t t t t t t t t t t t t t t t t t t t t t t t t t t t t t t e K L                 ",
"          P I w t t t t t t t t t t t t t t t t t t t t t t t t t t t t t r r U P                   ",
"        Y T e t t t t t t t t t t t t t t t t t t t t t t t t t t t t t r R E W                     ",
"        Q ! r t t t t t t t t t t t t t t t t t t t t t t t t t t t t r 0 - ~                       ",
"      % ^ w t t t t t t t t t t t t t t t t t t t t t t t t t t t t r / ( )                         ",
"      d _ r t t t t t t t t t t t t t t t t t t t t t t t t t t t e g ` '                           ",
"    & ] w t t t t t t t t t t t t t t t t t t t t t t t t t t t e [ { &                             ",
"    * } e t t t t t t t t t t t t t t t t t t t t t t t t t t w |  .                                ",
"    ..X.t t t t t t t t t t t t t t t t t t t t t t t t t t w : o.                                  ",
"    - q t t t t t t t t t t t t t t t t t t t t t t t t t w O.+.                                    ",
"  . ; w t t t t t t t t t t t t t t t t t t t t t t t t A @.#.                                      ",
"  b u e t t t t t t t t t t t t t t t t t t t t t t t e $.%.                                        ",
"  &.[ r t t t t t t t t t t t t t t t t t t t t t r t *.$                                           ",
"  O , r t t t t t t t t t t t t t t t t t t t t r =.-.;.                                            ",
"  + < t t t t t t t t t t t t t t t t t t t t t :.v >.                                              ",
"  + < t t t t t t t t t t t t t t t t t t t t t :.v >.                                              ",
"  @ 1 r t t t t t t t t t t t t t t t t t t t t r =.-.;.                                            ",
"  #.> r t t t t t t t t t t t t t t t t t t t t t r t *.$                                           ",
"  X : e t t t t t t t t t t t t t t t t t t t t t t t e $.,.                                        ",
"  ) <.w t t t t t t t t t t t t t t t t t t t t t t t t A @.#.                                      ",
"    1.w t t t t t t t t t t t t t t t t t t t t t t t t t w O.+.                                    ",
"     .y t t t t t t t t t t t t t t t t t t t t t t t t t t w : o.                                  ",
"    6 u e t t t t t t t t t t t t t t t t t t t t t t t t t t w |  .                                ",
"    2.3.w t t t t t t t t t t t t t t t t t t t t t t t t t t t e [ { &                             ",
"      4.5.r t t t t t t t t t t t t t t t t t t t t t t t t t t t e g ` '                           ",
"      6.7.w t t t t t t t t t t t t t t t t t t t t t t t t t t t t r / ( )                         ",
"        8.S r t t t t t t t t t t t t t t t t t t t t t t t t t t t t r 0 - ~                       ",
"        & 9.r t t t t t t t t t t t t t t t t t t t t t t t t t t t t t r R E W                     ",
"          X 0.w t t t t t t t t t t t t t t t t t t t t t t t t t t t t t r r U P                   ",
"            @ q.A t t t t t t t t t t t t t t t t t t t t t t t t t t t t t t e w.L                 ",
"              V S e t t t t t t t t t t t t t t t t t t t t t t t t t t t t t t G e.r.              ",
"                t.S A t t t t t t t t t t t t t t t t t t t t t t t t t t t t w y.u.&               ",
"                  i.p.w t t t t t t t t t t t t t t t t t t t t t t t t t t w a.s.                  ",
"                    @ d.r r t t t t t t t t t t t t t t t t t t t t t t e t ; f.                    ",
"                      $ g.[ w r t t t t t t t t t t t t t t t t t t r w y.h.j.                      ",
"                        & @ k.! w e t t t t t t t t t t t t t t A w S E l.                          ",
"                            z.O - x.c.w q w e r r r r e w q w / v.v b.'                             ",
"                                  X n.m.M.N.B.V.g g V.| C.Z.A.S.D.                                  ",
"                                        F.G.H.J.K.K.J.L.P.I.                                        ",
"                                                                                                    "
};
