/* XPM */
static char *_6170_4f04e82ea4d5f341a14ee06e571eee6914a5c5e2dfd6ffa30054b25dda0d7d09[] = {
/* columns rows colors chars-per-pixel */
"50 50 167 2 ",
"   c black",
".  c #090802",
"X  c #191605",
"o  c #2B2608",
"O  c #3A340B",
"+  c #40390C",
"@  c #39330B",
"#  c #2A2608",
"$  c #181605",
"%  c #080701",
"&  c #010100",
"*  c #1F1C06",
"=  c #544C10",
"-  c #8F801B",
";  c #BCA823",
":  c #D9C229",
">  c #EAD12C",
",  c #F3DA2E",
"<  c #F6DC2E",
"1  c #F3D92E",
"2  c #D8C129",
"3  c #BAA623",
"4  c #8C7E1A",
"5  c #51490F",
"6  c #1D1A05",
"7  c #433C0D",
"8  c #9A8A1D",
"9  c #DDC52A",
"0  c #FBE02F",
"q  c #FFE831",
"w  c #FFE731",
"e  c #FFE630",
"r  c #FFE530",
"t  c #FFE430",
"y  c #FAE02F",
"u  c #DAC329",
"i  c #96861C",
"p  c #3F380C",
"a  c #070601",
"s  c #030301",
"d  c #423B0C",
"f  c #AF9C21",
"g  c #F1D82D",
"h  c #A99820",
"j  c #3D370B",
"k  c #020200",
"l  c #1E1A06",
"z  c #92821B",
"x  c #EFD62D",
"c  c #EDD42D",
"v  c #8B7C1A",
"b  c #1A1705",
"n  c #CAB526",
"m  c #C4B025",
"M  c #5B5211",
"N  c #E5CD2B",
"B  c #E1C92A",
"V  c #544B10",
"C  c #675C13",
"Z  c #F0D62D",
"A  c #FFE631",
"S  c #ECD32C",
"D  c #5C5311",
"F  c #100F03",
"G  c #B9A523",
"H  c #524A0F",
"J  c #272307",
"K  c #BBA823",
"L  c #DFC82A",
"P  c #37310A",
"I  c #1C1905",
"U  c #AD9B21",
"Y  c #C0AC24",
"T  c #171504",
"R  c #141204",
"E  c #9F8E1E",
"W  c #FEE330",
"Q  c #857719",
"!  c #0E0C03",
"~  c #38320B",
"^  c #080702",
"/  c #807218",
"(  c #F7DD2E",
")  c #A2911F",
"_  c #050401",
"`  c #040401",
"'  c #706415",
"]  c #EED42D",
"[  c #615612",
"{  c #EBD22C",
"}  c #8E7F1B",
"|  c #52490F",
" . c #E3CB2B",
".. c #D5BE28",
"X. c #443D0D",
"o. c #F8DE2F",
"O. c #4B430E",
"+. c #CEB827",
"@. c #837519",
"#. c #2B2708",
"$. c #C2AD25",
"%. c #B29F22",
"&. c #050501",
"*. c #211E06",
"=. c #B4A122",
"-. c #D2BC27",
";. c #A6951F",
":. c #242007",
">. c #110F03",
",. c #97871C",
"<. c #FCE12F",
"1. c #EED52D",
"2. c #302B09",
"3. c #0A0902",
"4. c #FCE230",
"5. c #F1D72D",
"6. c #36300A",
"7. c #35300A",
"8. c #E4CC2B",
"9. c #232007",
"0. c #211D06",
"q. c #D1BB27",
"w. c #131104",
"e. c #B09E21",
"r. c #817318",
"t. c #48400D",
"y. c #D2BC28",
"u. c #171404",
"i. c #8A7B1A",
"p. c #352F0A",
"a. c #9D8D1E",
"s. c #040301",
"d. c #E7CE2B",
"f. c #342E0A",
"g. c #7F7118",
"h. c #BAA723",
"j. c #BBA723",
"k. c #312C09",
"l. c #0F0D03",
"z. c #B6A222",
"x. c #FFE931",
"c. c #E7CF2C",
"v. c #5F5512",
"b. c #E8CF2C",
"n. c #534A10",
"m. c #E0C82A",
"M. c #DBC429",
"N. c #C2AE25",
"B. c #332D09",
"V. c #887919",
"C. c #151304",
"Z. c #A5931F",
"A. c #EFD52D",
"S. c #060501",
"D. c #D5BF28",
"F. c #D3BC28",
"G. c #36310A",
"H. c #4A420E",
"J. c #847619",
"K. c #B29F21",
"L. c #D0BA27",
"P. c #B09D21",
"I. c #817418",
"U. c #47400D",
"Y. c #231F06",
"T. c #121003",
"R. c white",
/* pixels */
"                                                                                                    ",
"                                        . X o O + + @ # $ %                                         ",
"                                & * = - ; : > , < < 1 > 2 3 4 5 6 &                                 ",
"                            . 7 8 9 0 q w e r r t t r r e w w y u i p a                             ",
"                        s d f 1 w e t t t t t t t t t t t t t t e w g h j k                         ",
"                      l z x w r t t t t t t t t t t t t t t t t t t r w c v b                       ",
"                    + n e r t t t t t t t t t t t t t t t t t t t t t t r r m O                     ",
"                & M N w t t t t t t t t t t t t t t t t t t t t t t t t t t w B V                   ",
"              s C Z e t t t t t t t t t t t t t t t t t t t t t t t t t t t t A S D                 ",
"              F G q t t t t t t t t t t t t t t t t t t t t t t t t t t t t t t e S H               ",
"                J K e t t t t t t t t t t t t t t t t t t t t t t t t t t t t t t A L P             ",
"                  I U r r t t t t t t t t t t t t t t t t t t t t t t t t t t t t t w Y T           ",
"                    R E W r t t t t t t t t t t t t t t t t t t t t t t t t t t t t t r Q &         ",
"                      ! - 0 r t t t t t t t t t t t t t t t t t t t t t t t t t t t t r > ~         ",
"                        ^ / ( r t t t t t t t t t t t t t t t t t t t t t t t t t t t t w ) _       ",
"                          ` ' g e t t t t t t t t t t t t t t t t t t t t t t t t t t t r ] @       ",
"                            & [ { e t t t t t t t t t t t t t t t t t t t t t t t t t t t w }       ",
"                                |  .w t t t t t t t t t t t t t t t t t t t t t t t t t t A ..X     ",
"                                  X.: w t t t t t t t t t t t t t t t t t t t t t t t t t t o.O.    ",
"                                    P +.w t t t t t t t t t t t t t t t t t t t t t t t t t w @.    ",
"                                      #.$.A t t t t t t t t t t t t t t t t t t t t t t t t q %.&.  ",
"                                        *.=.e t t t t t t t t t t t t t t t t t t t t t t t w -.R   ",
"                                          $ ;.t r t t t t t t t t t t t t t t t t t t t t t e N :.  ",
"                                            >.,.<.r t t t t t t t t t t t t t t t t t t t t r 1.2.  ",
"                                              3.v 4.t t t t t t t t t t t t t t t t t t t t r 5.6.  ",
"                                              3.v 4.t t t t t t t t t t t t t t t t t t t t r 5.7.  ",
"                                            >.,.<.r t t t t t t t t t t t t t t t t t t t t r ] 2.  ",
"                                          $ ;.t r t t t t t t t t t t t t t t t t t t t t t e 8.9.  ",
"                                        0.=.e t t t t t t t t t t t t t t t t t t t t t t t w q.w.  ",
"                                      #.$.A t t t t t t t t t t t t t t t t t t t t t t t t q e._   ",
"                                    P +.w t t t t t t t t t t t t t t t t t t t t t t t t t w r.    ",
"                                  X.: w t t t t t t t t t t t t t t t t t t t t t t t t t t ( t.    ",
"                                |  .w t t t t t t t t t t t t t t t t t t t t t t t t t t A y.u.    ",
"                            & [ { e t t t t t t t t t t t t t t t t t t t t t t t t t t t w i.      ",
"                          ` ' g e t t t t t t t t t t t t t t t t t t t t t t t t t t t r { p.      ",
"                        ^ / ( r t t t t t t t t t t t t t t t t t t t t t t t t t t t t w a.s.      ",
"                      ! - 0 r t t t t t t t t t t t t t t t t t t t t t t t t t t t t e d.f.        ",
"                    R E W r t t t t t t t t t t t t t t t t t t t t t t t t t t t t t t g.          ",
"                  I U r r t t t t t t t t t t t t t t t t t t t t t t t t t t t t t w h.R           ",
"                J j.e t t t t t t t t t t t t t t t t t t t t t t t t t t t t t t w u k.            ",
"              l.z.x.t t t t t t t t t t t t t t t t t t t t t t t t t t t t t t e c.O.              ",
"              k v.S A t t t t t t t t t t t t t t t t t t t t t t t t t t t t w b.V                 ",
"                  n.m.w t t t t t t t t t t t t t t t t t t t t t t t t t t w M.O.                  ",
"                    @ N.r r t t t t t t t t t t t t t t t t t t t t t t e t ; B.                    ",
"                      $ V.{ w r t t t t t t t t t t t t t t t t t t r w b.r.C.                      ",
"                        & @ Z.A.w e t t t t t t t t t t t t t t A w S E p.                          ",
"                            S.O - D.o.w q w e r r r r e w q w ( F.v G.`                             ",
"                                  X H.J.K.q.8.1.g g 1. .L.P.I.U.u.                                  ",
"                                        &.w.9.2.6.6.2.Y.T._                                         ",
"                                                                                                    "
};
