/* XPM */
static char *_4528_a2aa6a23e537e31d493ab6623c32451fbf6bd6eb830cb1bf495ad01875dc5796[] = {
/* columns rows colors chars-per-pixel */
"50 50 175 2 ",
"   c black",
".  c #030301",
"X  c #110F03",
"o  c #0F0D03",
"O  c #020200",
"+  c #010100",
"@  c #675C13",
"#  c #B9A623",
"$  c #282408",
"%  c #B7A322",
"&  c #5F5512",
"*  c #5B5111",
"=  c #F0D62D",
"-  c #FFE831",
";  c #BCA823",
":  c #1D1A05",
">  c #1D1A06",
",  c #BDA923",
"<  c #FFE931",
"1  c #ECD32C",
"2  c #524A0F",
"3  c #3F380C",
"4  c #E5CD2B",
"5  c #FFE630",
"6  c #FFE430",
"7  c #AE9C21",
"8  c #151304",
"9  c #AF9C21",
"0  c #FFE631",
"q  c #DFC82A",
"w  c #37310A",
"e  c #1C1905",
"r  c #C8B326",
"t  c #FFE731",
"y  c #FFE530",
"u  c #A08F1E",
"i  c #0E0D03",
"p  c #C0AC24",
"a  c #171504",
"s  c #030200",
"d  c #90801B",
"f  c #FEE330",
"g  c #90811B",
"h  c #090802",
"j  c #857719",
"k  c #413A0C",
"l  c #EFD52D",
"z  c #FBE02F",
"x  c #807318",
"c  c #040401",
"v  c #817318",
"b  c #FBE12F",
"n  c #EAD12C",
"m  c #38320B",
"M  c #080701",
"N  c #AC9A20",
"B  c #F7DD2E",
"V  c #716515",
"C  c #F7DD2F",
"Z  c #A2911F",
"A  c #050401",
"S  c #423B0C",
"D  c #F2D92E",
"F  c #F2D82D",
"G  c #615712",
"H  c #F2D82E",
"J  c #EED42D",
"K  c #39330B",
"L  c #99891D",
"P  c #EBD22C",
"I  c #52490F",
"U  c #524A10",
"Y  c #8E7F1B",
"T  c #1F1C06",
"R  c #DCC529",
"E  c #E3CB2B",
"W  c #443D0D",
"Q  c #D5BE28",
"!  c #191605",
"~  c #554C10",
"^  c #D9C229",
"/  c #F8DE2F",
"(  c #4B430E",
")  c #8F801B",
"_  c #CEB827",
"`  c #2B2708",
"'  c #2C2708",
"]  c #CFB927",
"[  c #837519",
"{  c #C2AD25",
"}  c #211E06",
"|  c #C2AE25",
" . c #B29F22",
".. c #050501",
"X. c #1A1705",
"o. c #DAC329",
"O. c #B5A122",
"+. c #181605",
"@. c #B5A222",
"#. c #D2BC27",
"$. c #141204",
"%. c #A6941F",
"&. c #A6951F",
"*. c #242007",
"=. c #3A340B",
"-. c #F3DA2E",
";. c #97871C",
":. c #0A0902",
">. c #EED52D",
",. c #302B09",
"<. c #40390C",
"1. c #F6DC2E",
"2. c #FCE12F",
"3. c #8B7C1A",
"4. c #F1D72D",
"5. c #36300A",
"6. c #FCE230",
"7. c #35300A",
"8. c #F3D92E",
"9. c #E4CC2B",
"0. c #232007",
"q. c #D1BB27",
"w. c #131104",
"e. c #080702",
"r. c #BAA723",
"t. c #B09E21",
"y. c #8C7D1A",
"u. c #FAE02F",
"i. c #48400D",
"p. c #D2BC28",
"a. c #171404",
"s. c #010000",
"d. c #95851C",
"f. c #8A7B1A",
"g. c #3E370C",
"h. c #F0D72D",
"j. c #352F0A",
"k. c #060601",
"l. c #A89620",
"z. c #9D8D1E",
"x. c #040301",
"c. c #3C360B",
"v. c #E7CE2B",
"b. c #342E0A",
"n. c #897A1A",
"m. c #7F7118",
"M. c #C3AE25",
"N. c #E0C92A",
"B. c #312C09",
"V. c #544B10",
"C. c #E7CF2C",
"Z. c #5D5311",
"A. c #E8CF2C",
"S. c #534A10",
"D. c #E0C82A",
"F. c #DBC429",
"G. c #332D09",
"H. c #887919",
"J. c #A5931F",
"K. c #9F8E1E",
"L. c #060501",
"P. c #D5BF28",
"I. c #D3BC28",
"U. c #36310A",
"Y. c #4A420E",
"T. c #847619",
"R. c #B29F21",
"E. c #F1D82D",
"W. c #D0BA27",
"Q. c #B09D21",
"!. c #817418",
"~. c #47400D",
"^. c #231F06",
"/. c #121003",
"(. c white",
/* pixels */
"                                                                                                    ",
"                                                                                                    ",
"                                                                                                    ",
"                                                                                                    ",
"                                                                                                    ",
"                                                                                                    ",
"                                                                                                    ",
"                . X                                                             o O                 ",
"              + @ # $                                                         $ % &                 ",
"              * = - ; :                                                     > , < 1 2               ",
"            3 4 5 6 5 7 8                                                 8 9 5 6 0 q w             ",
"          e r t 6 6 6 y u i                                             i u y 6 6 6 t p a           ",
"        s d 5 6 6 6 6 6 f g h                                         h g f 6 6 6 6 6 y j +         ",
"        k l y 6 6 6 6 6 y z x c                                     c v b y 6 6 6 6 6 y n m         ",
"      M N t 6 6 6 6 6 6 6 y B V +                                 + V C y 6 6 6 6 6 6 6 t Z A       ",
"      S D y 6 6 6 6 6 6 6 6 y F G                                 G H y 6 6 6 6 6 6 6 6 y J K       ",
"    + L t 6 6 6 6 6 6 6 6 6 6 5 P I                             U P 5 6 6 6 6 6 6 6 6 6 6 t Y       ",
"    T R 5 6 6 6 6 6 6 6 6 6 6 6 5 E W                         W E 5 6 6 6 6 6 6 6 6 6 6 6 0 Q !     ",
"    ~ b 6 6 6 6 6 6 6 6 6 6 6 6 6 t ^ w                     w ^ t 6 6 6 6 6 6 6 6 6 6 6 6 6 / (     ",
"    ) - 6 6 6 6 6 6 6 6 6 6 6 6 6 6 t _ `                 ' ] t 6 6 6 6 6 6 6 6 6 6 6 6 6 6 t [     ",
"  h ; t 6 6 6 6 6 6 6 6 6 6 6 6 6 6 6 t { }             } | t 6 6 6 6 6 6 6 6 6 6 6 6 6 6 6 -  ...  ",
"  X.o.5 6 6 6 6 6 6 6 6 6 6 6 6 6 6 6 6 0 O.+.        +.@.0 6 6 6 6 6 6 6 6 6 6 6 6 6 6 6 6 t #.$.  ",
"  ' P y 6 6 6 6 6 6 6 6 6 6 6 6 6 6 6 6 6 5 %.X     X &.5 6 6 6 6 6 6 6 6 6 6 6 6 6 6 6 6 6 5 4 *.  ",
"  =.-.y 6 6 6 6 6 6 6 6 6 6 6 6 6 6 6 6 6 6 6 ;.:.:.;.6 6 6 6 6 6 6 6 6 6 6 6 6 6 6 6 6 6 6 y >.,.  ",
"  <.1.6 6 6 6 6 6 6 6 6 6 6 6 6 6 6 6 6 6 6 y 2.3.3.2.y 6 6 6 6 6 6 6 6 6 6 6 6 6 6 6 6 6 6 y 4.5.  ",
"  <.1.6 6 6 6 6 6 6 6 6 6 6 6 6 6 6 6 6 6 6 6 y 6.6.y 6 6 6 6 6 6 6 6 6 6 6 6 6 6 6 6 6 6 6 y 4.7.  ",
"  K 8.y 6 6 6 6 6 6 6 6 6 6 6 6 6 6 6 6 6 6 6 6 6 6 6 6 6 6 6 6 6 6 6 6 6 6 6 6 6 6 6 6 6 6 y J ,.  ",
"  ` n y 6 6 6 6 6 6 6 6 6 6 6 6 6 6 6 6 6 6 6 6 6 6 6 6 6 6 6 6 6 6 6 6 6 6 6 6 6 6 6 6 6 6 5 9.0.  ",
"  ! ^ 5 6 6 6 6 6 6 6 6 6 6 6 6 6 6 6 6 6 6 6 6 6 6 6 6 6 6 6 6 6 6 6 6 6 6 6 6 6 6 6 6 6 6 t q.w.  ",
"  e.r.t 6 6 6 6 6 6 6 6 6 6 6 6 6 6 6 6 6 6 6 6 6 6 6 6 6 6 6 6 6 6 6 6 6 6 6 6 6 6 6 6 6 6 - t.A   ",
"    y.t 6 6 6 6 6 6 6 6 6 6 6 6 6 6 6 6 6 6 6 6 6 6 6 6 6 6 6 6 6 6 6 6 6 6 6 6 6 6 6 6 6 6 t v     ",
"    I u.6 6 6 6 6 6 6 6 6 6 6 6 6 6 6 6 6 6 6 6 6 6 6 6 6 6 6 6 6 6 6 6 6 6 6 6 6 6 6 6 6 6 B i.    ",
"    : o.5 6 6 6 6 6 6 6 6 6 6 6 6 6 6 6 6 6 6 6 6 6 6 6 6 6 6 6 6 6 6 6 6 6 6 6 6 6 6 6 6 0 p.a.    ",
"    s.d.t 6 6 6 6 6 6 6 6 6 6 6 6 6 6 6 6 6 6 6 6 6 6 6 6 6 6 6 6 6 6 6 6 6 6 6 6 6 6 6 6 t f.      ",
"      g.h.y 6 6 6 6 6 6 6 6 6 6 6 6 6 6 6 6 6 6 6 6 6 6 6 6 6 6 6 6 6 6 6 6 6 6 6 6 6 6 y P j.      ",
"      k.l.t 6 6 6 6 6 6 6 6 6 6 6 6 6 6 6 6 6 6 6 6 6 6 6 6 6 6 6 6 6 6 6 6 6 6 6 6 6 6 t z.x.      ",
"        c.1 y 6 6 6 6 6 6 6 6 6 6 6 6 6 6 6 6 6 6 6 6 6 6 6 6 6 6 6 6 6 6 6 6 6 6 6 6 5 v.b.        ",
"        + n.y 6 6 6 6 6 6 6 6 6 6 6 6 6 6 6 6 6 6 6 6 6 6 6 6 6 6 6 6 6 6 6 6 6 6 6 6 6 m.          ",
"          ! M.t 6 6 6 6 6 6 6 6 6 6 6 6 6 6 6 6 6 6 6 6 6 6 6 6 6 6 6 6 6 6 6 6 6 6 t r.$.          ",
"            K N.0 6 6 6 6 6 6 6 6 6 6 6 6 6 6 6 6 6 6 6 6 6 6 6 6 6 6 6 6 6 6 6 6 t o.B.            ",
"              V.1 5 6 6 6 6 6 6 6 6 6 6 6 6 6 6 6 6 6 6 6 6 6 6 6 6 6 6 6 6 6 6 5 C.(               ",
"                Z.1 0 6 6 6 6 6 6 6 6 6 6 6 6 6 6 6 6 6 6 6 6 6 6 6 6 6 6 6 6 t A.V.                ",
"                  S.D.t 6 6 6 6 6 6 6 6 6 6 6 6 6 6 6 6 6 6 6 6 6 6 6 6 6 6 t F.(                   ",
"                    K | y y 6 6 6 6 6 6 6 6 6 6 6 6 6 6 6 6 6 6 6 6 6 6 5 6 ; G.                    ",
"                      +.H.P t y 6 6 6 6 6 6 6 6 6 6 6 6 6 6 6 6 6 6 y t A.v 8                       ",
"                        + K J.l t 5 6 6 6 6 6 6 6 6 6 6 6 6 6 6 0 t 1 K.j.                          ",
"                            L.=.) P./ t - t 5 y y y y 5 t - t B I.3.U.c                             ",
"                                  ! Y.T.R.q.9.>.E.E.>.E W.Q.!.~.a.                                  ",
"                                        ..w.0.,.5.5.,.^./.A                                         ",
"                                                                                                    "
};
