/* XPM */
static char *_4932_7fa5a0844198f134f1ecadf3ff664009c3c14d0d8736ca337c741dce477e01c2[] = {
/* columns rows colors chars-per-pixel */
"50 50 164 2 ",
"   c black",
".  c #090802",
"X  c #191605",
"o  c #2B2608",
"O  c #3A340B",
"+  c #40390C",
"@  c #39330B",
"#  c #2A2608",
"$  c #181605",
"%  c #080701",
"&  c #010100",
"*  c #1F1C06",
"=  c #544C10",
"-  c #8F801B",
";  c #BCA823",
":  c #D9C229",
">  c #EAD12C",
",  c #F3DA2E",
"<  c #F6DC2E",
"1  c #F3D92E",
"2  c #D8C129",
"3  c #BAA623",
"4  c #8C7E1A",
"5  c #51490F",
"6  c #1D1A05",
"7  c #433C0D",
"8  c #9A8A1D",
"9  c #DDC52A",
"0  c #FBE02F",
"q  c #FFE831",
"w  c #FFE731",
"e  c #FFE630",
"r  c #FFE530",
"t  c #FFE430",
"y  c #FAE02F",
"u  c #DAC329",
"i  c #96861C",
"p  c #3F380C",
"a  c #070601",
"s  c #030301",
"d  c #423B0C",
"f  c #AF9C21",
"g  c #F1D82D",
"h  c #A99820",
"j  c #3D370B",
"k  c #020200",
"l  c #1E1A06",
"z  c #92821B",
"x  c #EFD62D",
"c  c #EDD42D",
"v  c #8B7C1A",
"b  c #1A1705",
"n  c #CAB526",
"m  c #C4B025",
"M  c #5B5211",
"N  c #E5CD2B",
"B  c #E1C92A",
"V  c #544B10",
"C  c #655A13",
"Z  c #F0D62D",
"A  c #FFE631",
"S  c #ECD32C",
"D  c #5C5311",
"F  c #5B5111",
"G  c #524A0F",
"H  c #DFC82A",
"J  c #37310A",
"K  c #1C1905",
"L  c #C8B326",
"P  c #C0AC24",
"I  c #171504",
"U  c #030200",
"Y  c #90801B",
"T  c #857719",
"R  c #413A0C",
"E  c #EFD52D",
"W  c #38320B",
"Q  c #AC9A20",
"!  c #A2911F",
"~  c #050401",
"^  c #F2D92E",
"/  c #EED42D",
"(  c #99891D",
")  c #8E7F1B",
"_  c #DCC529",
"`  c #D5BE28",
"'  c #554C10",
"]  c #FBE12F",
"[  c #F8DE2F",
"{  c #4B430E",
"}  c #837519",
"|  c #B29F22",
" . c #050501",
".. c #D2BC27",
"X. c #141204",
"o. c #2C2708",
"O. c #EBD22C",
"+. c #242007",
"@. c #EED52D",
"#. c #302B09",
"$. c #F1D72D",
"%. c #36300A",
"&. c #35300A",
"*. c #2B2708",
"=. c #E4CC2B",
"-. c #232007",
";. c #D1BB27",
":. c #131104",
">. c #080702",
",. c #BAA723",
"<. c #B09E21",
"1. c #8C7D1A",
"2. c #817318",
"3. c #52490F",
"4. c #F7DD2E",
"5. c #48400D",
"6. c #D2BC28",
"7. c #171404",
"8. c #010000",
"9. c #95851C",
"0. c #8A7B1A",
"q. c #3E370C",
"w. c #F0D72D",
"e. c #352F0A",
"r. c #060601",
"t. c #A89620",
"y. c #9D8D1E",
"u. c #040301",
"i. c #3C360B",
"p. c #E7CE2B",
"a. c #342E0A",
"s. c #897A1A",
"d. c #7F7118",
"f. c #C3AE25",
"g. c #E0C92A",
"h. c #312C09",
"j. c #E7CF2C",
"k. c #5D5311",
"l. c #E8CF2C",
"z. c #534A10",
"x. c #E0C82A",
"c. c #DBC429",
"v. c #C2AE25",
"b. c #332D09",
"n. c #887919",
"m. c #151304",
"M. c #A5931F",
"N. c #9F8E1E",
"B. c #060501",
"V. c #D5BF28",
"C. c #D3BC28",
"Z. c #36310A",
"A. c #040401",
"S. c #4A420E",
"D. c #847619",
"F. c #B29F21",
"G. c #E3CB2B",
"H. c #D0BA27",
"J. c #B09D21",
"K. c #817418",
"L. c #47400D",
"P. c #231F06",
"I. c #121003",
"U. c white",
/* pixels */
"                                                                                                    ",
"                                        . X o O + + @ # $ %                                         ",
"                                & * = - ; : > , < < 1 > 2 3 4 5 6 &                                 ",
"                            . 7 8 9 0 q w e r r t t r r e w w y u i p a                             ",
"                        s d f 1 w e t t t t t t t t t t t t t t e w g h j k                         ",
"                      l z x w r t t t t t t t t t t t t t t t t t t r w c v b                       ",
"                    + n e r t t t t t t t t t t t t t t t t t t t t t t r r m O                     ",
"                & M N w t t t t t t t t t t t t t t t t t t t t t t t t t t w B V                   ",
"              & C Z e t t t t t t t t t t t t t t t t t t t t t t t t t t t t A S D                 ",
"              F Z e t t t t t t t t t t t t t t t t t t t t t t t t t t t t t t e S G               ",
"            p N e t t t t t t t t t t t t t t t t t t t t t t t t t t t t t t t t A H J             ",
"          K L w t t t t t t t t t t t t t t t t t t t t t t t t t t t t t t t t t t w P I           ",
"        U Y e t t t t t t t t t t t t t t t t t t t t t t t t t t t t t t t t t t t t r T &         ",
"        R E r t t t t t t t t t t t t t t t t t t t t t t t t t t t t t t t t t t t t r > W         ",
"      % Q w t t t t t t t t t t t t t t t t t t t t t t t t t t t t t t t t t t t t t t w ! ~       ",
"      d ^ r t t t t t t t t t t t t t t t t t t t t t t t t t t t t t t t t t t t t t t r / @       ",
"    & ( w t t t t t t t t t t t t t t t t t t t t t t t t t t t t t t t t t t t t t t t t w )       ",
"    * _ e t t t t t t t t t t t t t t t t t t t t t t t t t t t t t t t t t t t t t t t t A ` X     ",
"    ' ] t t t t t t t t t t t t t t t t t t t t t t t t t t t t t t t t t t t t t t t t t t [ {     ",
"    - q t t t t t t t t t t t t t t t t t t t t t t t t t t t t t t t t t t t t t t t t t t w }     ",
"  . ; w t t t t t t t t t t t t t t t t t t t t t t t t t t t t t t t t t t t t t t t t t t q |  .  ",
"  b u e t t t t t t t t t t t t t t t t t t t t t t t t t t t t t t t t t t t t t t t t t t w ..X.  ",
"  o.O.r t t t t t t t t t t t t t t t t t t t t t t t t t t t t t t t t t t t t t t t t t t e N +.  ",
"  O , r t t t t t t t t t t t t t t t t t t t t t t t t t t t t t t t t t t t t t t t t t t r @.#.  ",
"  + < t t t t t t t t t t t t t t t t t t t t t t t t t t t t t t t t t t t t t t t t t t t r $.%.  ",
"  + < t t t t t t t t t t t t t t t t t t t t t t t t t t t t t t t t t t t t t t t t t t t r $.&.  ",
"  @ 1 r t t t t t t t t t t t t t t t t t t t t t t t t t t t t t t t t t t t t t t t t t t r / #.  ",
"  *.> r t t t t t t t t t t t t t t t t t t t t t t t t t t t t t t t t t t t t t t t t t t e =.-.  ",
"  X : e t t t t t t t t t t t t t t t t t t t t t t t t t t t t t t t t t t t t t t t t t t w ;.:.  ",
"  >.,.w t t t t t t t t t t t t t t t t t t t t t t t t t t t t t t t t t t t t t t t t t t q <.~   ",
"    1.w t t t t t t t t t t t t t t t t t t t t t t t t t t t t t t t t t t t t t t t t t t w 2.    ",
"    3.y t t t t t t t t t t t t t t t t t t t t t t t t t t t t t t t t t t t t t t t t t t 4.5.    ",
"    6 u e t t t t t t t t t t t t t t t t t t t t t t t t t t t t t t t t t t t t t t t t A 6.7.    ",
"    8.9.w t t t t t t t t t t t t t t t t t t t t t t t t t t t t t t t t t t t t t t t t w 0.      ",
"      q.w.r t t t t t t t t t t t t t t t t t t t t t t t t t t t t t t t t t t t t t t r O.e.      ",
"      r.t.w t t t t t t t t t t t t t t t t t t t t t t t t t t t t t t t t t t t t t t w y.u.      ",
"        i.S r t t t t t t t t t t t t t t t t t t t t t t t t t t t t t t t t t t t t e p.a.        ",
"        & s.r t t t t t t t t t t t t t t t t t t t t t t t t t t t t t t t t t t t t t d.          ",
"          X f.w t t t t t t t t t t t t t t t t t t t t t t t t t t t t t t t t t t w ,.X.          ",
"            @ g.A t t t t t t t t t t t t t t t t t t t t t t t t t t t t t t t t w u h.            ",
"              V S e t t t t t t t t t t t t t t t t t t t t t t t t t t t t t t e j.{               ",
"                k.S A t t t t t t t t t t t t t t t t t t t t t t t t t t t t w l.V                 ",
"                  z.x.w t t t t t t t t t t t t t t t t t t t t t t t t t t w c.{                   ",
"                    @ v.r r t t t t t t t t t t t t t t t t t t t t t t e t ; b.                    ",
"                      $ n.O.w r t t t t t t t t t t t t t t t t t t r w l.2.m.                      ",
"                        & @ M.E w e t t t t t t t t t t t t t t A w S N.e.                          ",
"                            B.O - V.[ w q w e r r r r e w q w 4.C.v Z.A.                            ",
"                                  X S.D.F.;.=.@.g g @.G.H.J.K.L.7.                                  ",
"                                         .:.-.#.%.%.#.P.I.~                                         ",
"                                                                                                    "
};
