/* XPM */
static char *_4510_dfa2747078cfaf5895af16474e565c5b4c06a55f03d81b0796233cc1ef9aa53c[] = {
/* columns rows colors chars-per-pixel */
"50 50 152 2 ",
"   c black",
".  c #090802",
"X  c #191605",
"o  c #2B2608",
"O  c #3A340B",
"+  c #40390C",
"@  c #39330B",
"#  c #2A2608",
"$  c #181605",
"%  c #080701",
"&  c #010100",
"*  c #1F1C06",
"=  c #544C10",
"-  c #8F801B",
";  c #BCA823",
":  c #D9C229",
">  c #EAD12C",
",  c #F3DA2E",
"<  c #F6DC2E",
"1  c #F3D92E",
"2  c #D8C129",
"3  c #BAA623",
"4  c #8C7E1A",
"5  c #51490F",
"6  c #1D1A05",
"7  c #433C0D",
"8  c #9A8A1D",
"9  c #DDC52A",
"0  c #FBE02F",
"q  c #FFE831",
"w  c #FFE731",
"e  c #FFE630",
"r  c #FFE530",
"t  c #FFE430",
"y  c #FAE02F",
"u  c #DAC329",
"i  c #96861C",
"p  c #3F380C",
"a  c #070601",
"s  c #121003",
"d  c #A3921F",
"f  c #F4DA2E",
"g  c #F1D82D",
"h  c #A99820",
"j  c #3D370B",
"k  c #020200",
"l  c #A89620",
"z  c #EDD42D",
"x  c #8B7C1A",
"c  c #1A1705",
"v  c #38320B",
"b  c #EAD22C",
"n  c #C4B025",
"m  c #020100",
"M  c #91821B",
"N  c #FFE631",
"B  c #E1C92A",
"V  c #544B10",
"C  c #2A2508",
"Z  c #E0C82A",
"A  c #ECD32C",
"S  c #5C5311",
"D  c #7D7018",
"F  c #524A0F",
"G  c #D3BC28",
"H  c #DFC82A",
"J  c #37310A",
"K  c #6A5E14",
"L  c #FDE230",
"P  c #C0AC24",
"I  c #171504",
"U  c #131104",
"Y  c #C4AF25",
"T  c #857719",
"R  c #564D10",
"E  c #F8DE2F",
"W  c #0B0A02",
"Q  c #B29F22",
"!  c #A2911F",
"~  c #050401",
"^  c #443D0D",
"/  c #F1D72D",
"(  c #EED42D",
")  c #A08F1E",
"_  c #8E7F1B",
"`  c #342F0A",
"'  c #E8CF2C",
"]  c #D5BE28",
"[  c #8C7D1A",
"{  c #4B430E",
"}  c #262207",
"|  c #837519",
" . c #786B17",
".. c #050501",
"X. c #CFB927",
"o. c #D2BC27",
"O. c #141204",
"+. c #645A13",
"@. c #FCE12F",
"#. c #E5CD2B",
"$. c #242007",
"%. c #100F03",
"&. c #BFAB24",
"*. c #EED52D",
"=. c #302B09",
"-. c #534A10",
";. c #F8DD2F",
":. c #36300A",
">. c #35300A",
",. c #E4CC2B",
"<. c #232007",
"1. c #D1BB27",
"2. c #B09E21",
"3. c #DCC529",
"4. c #817318",
"5. c #F7DD2E",
"6. c #48400D",
"7. c #D2BC28",
"8. c #171404",
"9. c #8A7B1A",
"0. c #EBD22C",
"q. c #352F0A",
"w. c #9D8D1E",
"e. c #040301",
"r. c #E7CE2B",
"t. c #342E0A",
"y. c #7F7118",
"u. c #BAA723",
"i. c #312C09",
"p. c #7E7018",
"a. c #E7CF2C",
"s. c #92821B",
"d. c #DBC429",
"f. c #332D09",
"g. c #151304",
"h. c #100E03",
"j. c #EFD62D",
"k. c #9F8E1E",
"l. c #060601",
"z. c #D5BF28",
"x. c #36310A",
"c. c #040401",
"v. c #4A420E",
"b. c #847619",
"n. c #B29F21",
"m. c #E3CB2B",
"M. c #D0BA27",
"N. c #B09D21",
"B. c #817418",
"V. c #47400D",
"C. c #231F06",
"Z. c white",
/* pixels */
"                                                                                                    ",
"                                        . X o O + + @ # $ %                                         ",
"                                & * = - ; : > , < < 1 > 2 3 4 5 6 &                                 ",
"                            . 7 8 9 0 q w e r r t t r r e w w y u i p a                             ",
"                          s d f w e t t t t t t t t t t t t t t e w g h j k                         ",
"                          % l q t t t t t t t t t t t t t t t t t t r w z x c                       ",
"                            v b r t t t t t t t t t t t t t t t t t t t r r n O                     ",
"                            m M N t t t t t t t t t t t t t t t t t t t t t w B V                   ",
"                              C Z e t t t t t t t t t t t t t t t t t t t t t N A S                 ",
"                                D r t t t t t t t t t t t t t t t t t t t t t t e A F               ",
"                                6 G N t t t t t t t t t t t t t t t t t t t t t t N H J             ",
"                                  K L t t t t t t t t t t t t t t t t t t t t t t t w P I           ",
"                                  U Y w t t t t t t t t t t t t t t t t t t t t t t t r T &         ",
"                                    R E r t t t t t t t t t t t t t t t t t t t t t t r > v         ",
"                                    W Q w t t t t t t t t t t t t t t t t t t t t t t t w ! ~       ",
"                                      ^ / r t t t t t t t t t t t t t t t t t t t t t t r ( @       ",
"                                      ~ ) w t t t t t t t t t t t t t t t t t t t t t t t w _       ",
"                                        ` ' r t t t t t t t t t t t t t t t t t t t t t t N ] X     ",
"                                        & [ e t t t t t t t t t t t t t t t t t t t t t t t E {     ",
"                                          } 9 e t t t t t t t t t t t t t t t t t t t t t t w |     ",
"                                             .t t t t t t t t t t t t t t t t t t t t t t t q Q ..  ",
"                                            c X.w t t t t t t t t t t t t t t t t t t t t t w o.O.  ",
"                                              +.@.t t t t t t t t t t t t t t t t t t t t t e #.$.  ",
"                                              %.&.w t t t t t t t t t t t t t t t t t t t t r *.=.  ",
"                                                -.;.t t t t t t t t t t t t t t t t t t t t r / :.  ",
"                                                -.;.t t t t t t t t t t t t t t t t t t t t r / >.  ",
"                                              %.&.w t t t t t t t t t t t t t t t t t t t t r ( =.  ",
"                                              +.@.t t t t t t t t t t t t t t t t t t t t t e ,.<.  ",
"                                            c X.w t t t t t t t t t t t t t t t t t t t t t w 1.U   ",
"                                             .t t t t t t t t t t t t t t t t t t t t t t t q 2.~   ",
"                                          } 3.e t t t t t t t t t t t t t t t t t t t t t t w 4.    ",
"                                        & [ e t t t t t t t t t t t t t t t t t t t t t t t 5.6.    ",
"                                        ` ' r t t t t t t t t t t t t t t t t t t t t t t N 7.8.    ",
"                                      ~ ) w t t t t t t t t t t t t t t t t t t t t t t t w 9.      ",
"                                      ^ / r t t t t t t t t t t t t t t t t t t t t t t r 0.q.      ",
"                                    W Q w t t t t t t t t t t t t t t t t t t t t t t t w w.e.      ",
"                                    R E r t t t t t t t t t t t t t t t t t t t t t t e r.t.        ",
"                                  U Y w t t t t t t t t t t t t t t t t t t t t t t t t y.          ",
"                                  K L t t t t t t t t t t t t t t t t t t t t t t t w u.O.          ",
"                                6 G N t t t t t t t t t t t t t t t t t t t t t t w u i.            ",
"                                p.r t t t t t t t t t t t t t t t t t t t t t t e a.{               ",
"                              C Z e t t t t t t t t t t t t t t t t t t t t t w ' V                 ",
"                            m s.N t t t t t t t t t t t t t t t t t t t t t w d.{                   ",
"                            @ 0.r t t t t t t t t t t t t t t t t t t t e t ; f.                    ",
"                          % l q t t t t t t t t t t t t t t t t t t r w ' 4.g.                      ",
"                          h.8 j.w e t t t t t t t t t t t t t t N w A k.q.                          ",
"                            l.O - z.E w q w e r r r r e w q w 5.G x x.c.                            ",
"                                  X v.b.n.1.,.*.g g *.m.M.N.B.V.8.                                  ",
"                                        ..U <.=.:.:.=.C.s ~                                         ",
"                                                                                                    "
};
