/* XPM */
static char *_4054_0ae7195914996f70cf87fe6363fe2af8b60580428fae857ed8b5940f80219309[] = {
/* columns rows colors chars-per-pixel */
"50 50 36 1 ",
"  c #00C2CB",
". c #00C3CC",
"X c #00C0C9",
"o c #00B3BF",
"O c #01B1BE",
"+ c #01B2BF",
"@ c #00BFC9",
"# c #044A6D",
"$ c #043960",
"% c #043A61",
"& c #043A60",
"* c #044468",
"= c #01A9B8",
"- c #00C4CC",
"; c #01AFBC",
": c #04365D",
"> c #05224E",
", c #05244F",
"< c #05234E",
"1 c #052F58",
"2 c #01A5B4",
"3 c #00C4CD",
"4 c #04375E",
"5 c #052550",
"6 c #053059",
"7 c #01A5B5",
"8 c #01B0BD",
"9 c #044166",
"0 c #053058",
"q c #043B61",
"w c #01A8B6",
"e c #00BFC8",
"r c #01A6B5",
"t c #01A8B7",
"y c #00BDC7",
"u c white",
/* pixels */
"  ..............................................  ",
" XoOOOOOOOOOOOOOOOOOOOOOOOOOOOOOOOOOOOOOOOOOOOO+@ ",
".O#$%%%%%%%%%%%%%%%%%%%%%%%%%%%%%%%%%%%%%%%%%%&*=-",
".;:>,,,,,,,,,,,,,,,,,,,,,,,,,,,,,,,,,,,,,,,,,,<123",
".;4,555555555555555555555555555555555555555555,673",
".;4,555555555555555555555555555555555555555555,673",
".;4,555555555555555555555555555555555555555555,673",
".;4,555555555555555555555555555555555555555555,673",
".;4,555555555555555555555555555555555555555555,673",
".;4,555555555555555555555555555555555555555555,673",
".;4,555555555555555555555555555555555555555555,673",
".;4,555555555555555555555555555555555555555555,673",
".;4,555555555555555555555555555555555555555555,673",
".;4,555555555555555555555555555555555555555555,673",
".;4,555555555555555555555555555555555555555555,673",
".;4,555555555555555555555555555555555555555555,673",
".;4,555555555555555555555555555555555555555555,673",
".;4,555555555555555555555555555555555555555555,673",
".;4,555555555555555555555555555555555555555555,673",
".;4,555555555555555555555555555555555555555555,673",
".;4,555555555555555555555555555555555555555555,673",
".;4,555555555555555555555555555555555555555555,673",
".;4,555555555555555555555555555555555555555555,673",
".;4,555555555555555555555555555555555555555555,673",
".;4,555555555555555555555555555555555555555555,673",
".;4,555555555555555555555555555555555555555555,673",
".;4,555555555555555555555555555555555555555555,673",
".;4,555555555555555555555555555555555555555555,673",
".;4,555555555555555555555555555555555555555555,673",
".;4,555555555555555555555555555555555555555555,673",
".;4,555555555555555555555555555555555555555555,673",
".;4,555555555555555555555555555555555555555555,673",
".;4,555555555555555555555555555555555555555555,673",
".;4,555555555555555555555555555555555555555555,673",
".;4,555555555555555555555555555555555555555555,673",
".;4,555555555555555555555555555555555555555555,673",
".;4,555555555555555555555555555555555555555555,673",
".;4,555555555555555555555555555555555555555555,673",
".;4,555555555555555555555555555555555555555555,673",
".;4,555555555555555555555555555555555555555555,673",
".;4,555555555555555555555555555555555555555555,673",
".;4,555555555555555555555555555555555555555555,673",
".;4,555555555555555555555555555555555555555555,673",
".;4,555555555555555555555555555555555555555555,673",
".;4,555555555555555555555555555555555555555555,673",
".;4,555555555555555555555555555555555555555555,673",
".;4<,,,,,,,,,,,,,,,,,,,,,,,,,,,,,,,,,,,,,,,,,,,173",
".8916666666666666666666666666666666666666666660qw3",
" e=rrrrrrrrrrrrrrrrrrrrrrrrrrrrrrrrrrrrrrrrrrrrty ",
"  -33333333333333333333333333333333333333333333-  "
};
